# xmcd
#
# Track frame offsets: 
#        150
#        12330
#        23592
#        34845
#        48412
#        61510
#        75712
#        87680
#        100185
#        115735
#        137337
#        146992
#        158272
#        174830
#        188325
#        201932
#        213730
#        225297
#        237582
#        247707
#
# Disc length: 3489 seconds
#
# Revision: 3
# Processed by: cddbd v1.5.2PL0 Copyright (c) Steve Scherf et al.
# Submitted via: ExactAudioCopy v1.1
#
DISCID=f40d9f14
DTITLE=Brenda Lee - The Crying Game
DYEAR=1994
DGENRE=Pop
TTITLE0=The Crying Game (stereo)
TTITLE1=Can't Help Falling In Love (stereo)
TTITLE2=September In The Rain (stereo)
TTITLE3=When I Fall In Love (stereo)
TTITLE4=Will You Love Me Tomorrow (stereo)
TTITLE5=Close To You (stereo)
TTITLE6=Fools Rush In (Where Angels Fear To Tread) (stereo)
TTITLE7=You Always Hurt The One You Love (stereo)
TTITLE8=Words (stereo)
TTITLE9=If You Go Away (stereo)
TTITLE10=Let It Be Me (stereo)
TTITLE11=Our Day Will Come (mono)
TTITLE12=This Girl's In Love With You (stereo)
TTITLE13=You Don't Have To Say You Love Me (stereo)
TTITLE14=If I Didn't Care (version 1) (mono)
TTITLE15=I'll Be Seeing You (stereo)
TTITLE16=Lover, Come Back To Me (stereo)
TTITLE17=Softly As I Leave You (stereo)
TTITLE18=What Kind Of Fool Am I (stereo)
TTITLE19=The End Of The World (stereo)
EXTD=
EXTT0=
EXTT1=
EXTT2=
EXTT3=
EXTT4=
EXTT5=
EXTT6=
EXTT7=
EXTT8=
EXTT9=
EXTT10=
EXTT11=
EXTT12=
EXTT13=
EXTT14=
EXTT15=
EXTT16=
EXTT17=
EXTT18=
EXTT19=
PLAYORDER=
